<svg width="82" height="82" viewBox="0 0 82 82" fill="none" xmlns="http://www.w3.org/2000/svg">
<path d="M33.8481 12.6353C35.2067 12.5405 36.0005 12.6582 36.8247 13.8479C37.4937 14.8137 37.542 15.8419 37.33 16.9589C36.7868 19.8211 35.5859 22.4168 34.0056 24.847C30.6213 30.442 26.4501 34.4725 20.918 37.931C19.8863 38.576 18.6956 39.2498 17.5959 39.789C16.2941 40.4273 15.1793 40.8157 13.9684 41.6566C15.7755 42.5355 17.4476 43.3906 19.1761 44.4089C21.6783 45.8828 23.3887 47.3629 25.4309 49.3865C28.5596 52.4867 31.1643 55.8231 33.0583 59.8288C33.7595 61.312 34.2356 62.9007 34.6808 64.4777C35.1685 66.3719 35.9572 67.5312 34.8231 69.3352C33.1234 69.4038 32.1741 69.37 30.4619 69.1671C28.9221 68.9918 27.2794 68.9349 26.2131 67.6424C25.3405 66.5846 25.2905 64.818 24.7527 63.4957C24.3718 62.5594 24.0367 61.6984 23.5771 60.7892C21.4513 56.5847 17.9783 52.8783 14.7943 49.4451C12.5673 47.0437 10.0798 44.3351 7.40787 42.4697C6.74726 41.945 5.58711 41.3107 5.42076 40.4323C5.31605 39.8795 6.18781 39.6612 6.65757 39.4264C10.7271 37.3928 14.5352 34.853 17.2865 31.1574C20.1165 27.3562 22.0428 22.7645 23.0839 18.1539C23.3244 16.9734 23.6306 15.7784 23.6275 14.5675C23.6265 14.1449 23.3325 13.4033 23.5938 13.0665C24.0151 12.9417 25.5179 12.9619 26.0734 12.9435C28.6548 12.8581 31.2725 12.6672 33.8481 12.6353Z" fill="black"/>
<path d="M9.39058 41.9021C9.82247 41.9385 10.5534 42.6498 11.1074 42.8815C12.0863 43.291 13.075 43.631 14.0579 44.0296C16.0017 44.8079 17.8831 45.7341 19.6854 46.8C24.3101 49.5574 28.3709 53.7944 30.8649 58.576C31.363 59.5308 33.808 65.9585 33.4556 66.5454C32.664 66.2358 32.4227 66.3629 31.6271 66.3526C30.3959 66.3368 29.1483 66.2748 27.9253 66.1333C27.6974 66.1072 27.3965 66.0493 27.2951 65.8294C27.0619 65.3912 26.8962 64.8546 26.7254 64.3872C26.532 63.8511 26.3199 63.3217 26.0896 62.8005C25.1523 60.6854 24.0049 58.6693 22.6647 56.7833C20.7993 54.1254 18.7458 51.8335 16.5317 49.4792C14.1975 46.9974 11.9706 44.4227 9.39191 42.1768C9.31709 42.1117 9.37131 41.9814 9.39058 41.9021Z" fill="white"/>
<path d="M34.2188 15.4998C34.3973 15.4587 34.6008 15.4579 34.7612 15.5458C34.829 15.6757 34.8276 15.7569 34.7915 15.9041C34.2732 18.0174 33.2932 19.6757 32.2119 21.5004C28.9415 27.0191 24.6656 31.474 19.1736 34.8316C19.0075 34.9314 18.7849 35.033 18.6074 35.1202C19.3536 34.0023 20.3255 32.7482 20.9913 31.5783C23.3762 27.3873 25.1089 22.8525 25.8348 18.0703C25.9474 17.3282 25.8986 16.6579 25.9789 15.9285C26.7584 15.8146 28.3997 15.9187 29.2894 15.8758C30.9553 15.7956 32.5607 15.6227 34.2188 15.4998Z" fill="white"/>
<path d="M54.702 12.7836C55.9725 12.6266 56.9744 13.7656 57.3388 14.8631C57.5402 15.527 57.6278 16.2221 57.8918 16.8684C58.2782 17.8159 58.7953 18.7092 59.2612 19.6197C59.4692 20.0266 59.6871 20.4394 59.9033 20.8426C60.5716 22.0853 61.1907 23.3638 61.919 24.5727C64.6716 29.0629 68.1377 33.0744 72.1813 36.4495C72.6313 36.8293 72.926 37.0872 73.4487 37.3782C74.1068 37.7462 74.9016 38.0338 75.4797 38.5233C75.9441 38.9062 76.9527 40.253 76.4038 40.8292C75.6084 41.664 74.6162 42.4336 73.7255 43.173C72.3786 44.291 70.9467 45.339 69.7069 46.5784C68.5308 47.7546 67.557 49.1238 66.551 50.4436C64.3754 53.2471 62.4315 56.2237 60.7402 59.3438C60.2641 60.2192 59.7291 61.1837 59.3298 62.0903C59.0352 62.7652 58.7892 63.4602 58.5929 64.17C58.4022 64.8619 58.0419 67.5059 57.6745 67.8426C57.1251 68.3453 49.7596 68.3802 48.79 68.3305C47.9577 68.2879 47.5083 68.1224 46.9457 67.5007C46.835 67.3583 46.6721 67.1123 46.599 66.9524C46.458 66.6433 46.3935 66.3046 46.4111 65.9653C46.4436 65.338 47.4174 62.3722 47.7105 61.6588C50.7182 54.3367 57.0077 47.4021 63.3176 42.7155C65.2272 41.297 66.5469 40.3969 68.6773 39.4487C68.4826 39.3679 68.2894 39.2834 68.0977 39.1952C65.6925 38.0812 62.2045 36.0098 60.0996 34.4471C57.2317 32.3181 54.1454 28.9282 52.1405 26.0087C50.9966 24.3111 49.9505 22.5497 49.007 20.7332C48.4543 19.6885 47.9194 18.6346 47.4024 17.5719C47.0341 16.823 45.9855 14.9281 46.3457 14.1572C46.5485 13.9982 47.9972 14 48.4107 13.9568C50.6236 13.7255 52.47 12.9599 54.702 12.7836Z" fill="black"/>
<path d="M55.3809 15.6514C55.5255 15.6427 55.733 15.6907 55.8053 15.8231C57.1732 18.3204 58.4201 20.9424 59.7895 23.4361C62.1295 27.6217 65.039 31.4623 68.4343 34.8482C69.6003 36.0204 70.9502 37.1446 72.0562 38.2778C69.8873 37.7203 68.9109 37.6972 66.7313 36.6942C66.6611 36.6616 66.5914 36.6275 66.5227 36.5919C65.6525 36.1409 64.6818 35.5165 63.8259 35.0082C62.6815 34.3287 61.3254 33.627 60.2661 32.8526C56.2414 29.9111 53.1229 25.8021 50.8308 21.4082C50.2288 20.2542 48.998 17.9977 48.6133 16.7947C49.5732 16.6925 50.1591 16.7625 51.2295 16.5811C52.4643 16.3719 54.2422 15.768 55.3809 15.6514Z" fill="white"/>
<path d="M69.7945 42.0188L69.8729 42.0811C69.7417 42.4135 68.916 42.9794 68.6188 43.2571C67.9736 43.8607 67.3673 44.5071 66.7928 45.1756C63.7762 48.7075 61.1219 52.5336 58.8705 56.5962C58.0777 58.0051 57.2802 59.3739 56.7703 60.915C56.4121 61.9805 56.1471 63.0747 55.9775 64.1853C55.8704 64.8936 55.8294 65.6182 55.6741 66.3147C53.2966 65.6162 52.1732 65.6992 49.6838 65.6961C49.5297 65.6623 49.1553 65.6516 48.9785 65.6423C49.0607 65.3174 49.1551 64.9961 49.2616 64.6788C51.9205 56.5275 62.1956 45.8701 69.7945 42.0188Z" fill="white"/>
</svg>
