<svg width="82" height="82" viewBox="0 0 82 82" fill="none" xmlns="http://www.w3.org/2000/svg">
<path d="M36.3382 3.55993C36.3636 3.55715 36.3892 3.55569 36.4146 3.55469C40.0147 3.4128 49.9878 3.80908 52.5169 6.1973C52.7378 6.40573 52.8875 6.63159 52.951 6.93104C53.1329 7.78369 53.0448 8.77502 53.0735 9.64945C53.1652 12.4258 53.1622 15.2033 53.2518 17.9792C55.4325 16.3955 57.3605 14.3745 60.2162 14.2036C65.7251 13.8738 71.319 18.9955 75.2699 22.3564C76.5152 23.3804 77.5695 24.419 77.6822 26.1276C77.8436 28.5795 75.4651 30.5375 73.9051 32.2698L67.2293 39.6658C68.0651 40.106 69.2049 40.9848 69.9829 41.5681C71.8489 42.9836 73.6826 44.4412 75.4831 45.9398C76.7238 46.9669 77.9753 47.9855 79.1792 49.0553C80.0792 49.8552 80.1489 50.6457 79.5769 51.6835C78.6457 53.3748 77.388 54.9543 76.2139 56.4908C74.0286 59.3551 72.0181 62.1621 69.4356 64.6928C65.1895 68.8538 62.114 66.7731 57.7526 64.6318C57.75 65.2243 57.8356 66.0171 57.8679 66.6413L58.1708 71.752C58.5547 77.4853 58.2877 76.9662 52.8116 77.5673C49.9721 77.8999 47.1238 78.1521 44.2701 78.3222C43.7019 78.4083 41.0364 78.4745 40.3716 78.4663C36.9257 78.3817 32.4513 78.5021 29.7158 76.077C28.1583 74.6958 28.4188 72.2932 28.4847 70.4133C28.574 67.8657 28.3947 65.3222 28.388 62.7761C27.5838 63.4592 26.8406 64.2131 26.0223 64.8978C24.0296 66.5645 21.5461 67.5136 18.9187 67.2435C13.4387 66.6798 8.76008 61.8828 5.45235 57.8463C4.80435 57.0555 2.67557 54.305 2.32298 53.4475C2.10322 52.9094 2.02163 52.3252 2.08564 51.7476C2.16084 51.0264 2.4542 50.3455 2.92652 49.7956C3.28814 49.3808 4.04008 48.8237 4.49167 48.47L6.70213 46.7311L14.7982 40.3231C12.3836 39.191 9.96291 37.9103 7.58538 36.6946C4.55406 35.1445 3.71648 34.3193 5.16253 31.0165C6.93204 26.975 8.48497 22.6249 11.1194 19.04C13.6494 15.6257 17.301 16.7514 20.6429 17.9734C22.6172 18.6953 24.5842 19.5202 26.5454 20.3012L26.5456 11.8464C26.5458 10.0751 26.4698 8.2372 26.7126 6.48148C26.8175 5.72334 27.1092 4.85929 27.875 4.5394C28.8267 4.1419 29.9226 4.05638 30.9467 3.94359C32.7377 3.73996 34.5365 3.61195 36.3382 3.55993Z" fill="black"/>
<path d="M40.4566 8.68412C41.7643 8.63169 43.2206 8.66321 44.5395 8.66582C44.3799 9.50853 44.2575 11.6287 44.1861 12.548C44.0153 15.3626 43.7356 18.3486 43.8143 21.1568C43.9184 24.8733 43.4363 29.3316 48.6071 28.8624C52.5061 28.5087 55.3771 26.4543 58.305 24.0039C59.513 22.9929 60.6897 21.6191 62.2164 21.2468C63.8708 21.6389 65.3888 23.3237 66.7224 24.3476C67.1329 24.6627 68.7877 25.9116 68.9604 26.2417C68.9692 26.6288 68.5074 27.2183 68.2368 27.4681C64.8097 30.6325 61.1745 33.6176 58.1692 37.2092C57.4497 38.0686 56.1946 39.6349 56.2822 40.7977C56.3673 41.9211 58.0319 41.6362 58.7448 42.0588C62.3948 44.5197 65.8403 47.4455 69.2971 50.1549C68.9287 50.6344 68.4838 51.3223 68.1343 51.8297L65.8573 55.1281L63.7432 58.1873C63.324 58.7941 62.8217 59.4859 62.4476 60.1137C59.5392 58.3441 52.7936 53.9381 49.4901 54.4609C48.9071 54.5531 48.3777 54.8186 48.0272 55.3034C46.4896 57.4308 48.2905 63.0719 48.9034 65.4827C49.316 67.1058 49.7488 68.7417 50.0061 70.3981C50.1093 71.0623 50.3111 72.2077 49.8522 72.7725C49.6987 72.9616 49.3525 73.0446 49.1189 73.0872C48.3795 73.2235 47.565 73.2132 46.8133 73.2635L42.8331 73.5556C41.6847 73.715 39.7347 73.8077 38.4946 73.9128C38.3067 71.3011 38.2472 68.571 38.0923 65.9183C37.9808 62.7383 37.9285 55.6796 35.5972 53.3042C31.3361 48.9619 23.9467 57.7357 20.5843 59.941C20.3011 60.1266 19.8577 60.2613 19.5486 60.227C18.7973 60.143 18.2015 59.426 17.7222 58.9032C17.2673 58.3789 16.8076 57.807 16.3573 57.2622L12.8379 52.9828C13.2398 52.7286 14.3419 51.7856 14.7745 51.4356L18.7715 48.2206C20.5761 46.7881 22.4237 45.492 24.2502 44.1001C25.8282 42.8422 26.9487 41.3485 24.8501 39.8926C21.1637 37.3352 16.8221 35.6798 13.0553 33.2681C13.4433 32.1249 14.2185 30.6284 14.7558 29.529C15.8517 27.2865 17.0511 25.0723 18.1739 22.8413C20.2424 23.9626 22.4929 25.0859 24.567 26.1504C26.6188 27.2036 35.23 31.6016 35.4258 26.8389C35.4716 25.7241 35.0707 22.6031 35.0031 21.2446C34.8787 18.3474 34.8095 15.4481 34.7956 12.5483C34.7837 11.268 34.745 10.0624 34.7524 8.76673C34.9914 8.76663 35.2411 8.76407 35.4797 8.75044C37.1277 8.6566 38.8145 8.77955 40.4566 8.68412Z" fill="white"/>
</svg>
