<svg width="81" height="81" viewBox="0 0 81 81" fill="none" xmlns="http://www.w3.org/2000/svg">
<path d="M52.8082 33.737C54.212 33.5161 55.8487 34.1684 57.0708 34.8069C59.3079 35.9755 60.2931 36.8068 57.3361 38.0974C55.8442 38.7485 54.3153 39.2545 52.7459 39.7565C50.8121 40.3728 48.8727 40.9709 46.9277 41.5507C41.9468 43.0584 36.1674 44.8807 31.1091 45.9042C30.8393 45.9463 30.5691 45.9854 30.2984 46.0216C28.5694 46.2445 27.0015 46.2527 25.5624 45.1082C23.8938 43.852 26.2358 42.5788 27.3117 42.0751C29.887 40.8698 32.7138 39.9291 35.4183 39.0539L42.1752 36.8709L47.1021 35.2334C48.8816 34.6393 50.9452 33.9125 52.8082 33.737Z" fill="black"/>
<path d="M38.2287 8.42847C39.0615 8.45874 39.7874 8.67223 40.5148 9.00807C42.8641 10.0928 44.3683 10.6791 42.2145 13.22C40.5065 15.1487 38.5953 17.1425 36.6849 18.8726C33.6669 21.6058 30.0452 25.567 26.3911 27.3567C24.9948 27.956 23.9074 28.011 22.7088 26.9903C22.3315 26.6691 21.7578 25.9982 21.799 25.4927C21.9609 23.505 24.4307 20.9329 25.6873 19.5195C27.3402 17.6838 29.0173 15.8701 30.7183 14.0789C31.9281 12.803 33.1392 11.5285 34.4646 10.3706C35.5661 9.40836 36.7167 8.51802 38.2287 8.42847Z" fill="black"/>
<path d="M26.2114 60.8609C28.3649 60.7693 31.246 61.713 33.3267 62.3645C36.8796 63.4772 51.5616 68.6866 53.0971 71.6243C52.9356 72.1356 52.8637 72.3052 52.3995 72.5756C50.0892 73.0327 43.7025 70.3982 41.3251 69.4642C36.6958 67.6447 31.8564 65.8207 27.478 63.4514C26.7824 63.0753 24.308 61.3368 26.2114 60.8609Z" fill="black"/>
</svg>
