<svg width="82" height="82" viewBox="0 0 82 82" fill="none" xmlns="http://www.w3.org/2000/svg">
<path d="M36.5182 13.395C36.6104 13.3844 36.7028 13.3763 36.7954 13.3708C38.2634 13.2766 39.9617 13.4991 41.4486 13.5711C47.7644 13.8817 54.1272 13.9141 60.4181 14.5653C61.6271 14.7723 64.0518 14.9946 62.3123 16.6911C61.0931 17.8807 59.7739 18.9256 58.5614 20.1295C54.5966 24.1012 50.7145 28.1548 46.9179 32.2877C48.3666 32.2438 49.9053 32.401 51.3612 32.4452C52.9587 32.4938 54.59 32.5044 56.1711 32.7446C57.2084 32.9022 58.0842 33.3099 57.4938 34.5087C57.2734 34.9551 57.009 35.4462 56.7092 35.8461C54.5767 38.6893 52.1331 41.3608 49.7892 44.0305C45.7171 48.6885 41.5963 53.3038 37.4276 57.8758C35.688 59.7823 33.9308 61.6724 32.1564 63.5466C30.7902 64.9862 27.6262 68.5312 25.5908 68.7116C22.1972 69.0124 24.5313 62.6308 25.0297 60.9698C26.2525 56.9794 27.5857 53.0234 29.028 49.1071C29.2392 48.5218 31.0502 44.0191 30.3821 43.8025C29.4486 43.5001 27.3302 44.2658 26.2175 44.379C23.7944 44.6255 17.5385 46.5747 19.4198 41.695C22.8875 32.1149 28.9763 23.6798 34.4574 15.176C35.1929 14.0348 34.5724 13.6312 36.5182 13.395Z" fill="black"/>
<path d="M38.9006 16.1899C40.741 16.1956 42.9043 16.3503 44.75 16.4391L51.7486 16.7527C53.0135 16.819 54.4039 16.9515 55.66 16.9664C55.1352 17.3701 54.5776 17.8413 54.0672 18.268C53.0406 19.1197 52.0582 20.023 51.1231 20.9745C49.3525 22.7679 41.2875 31.4915 41.159 33.6194C41.1452 33.848 41.1806 34.0941 41.3463 34.2649C41.6657 34.5939 42.1863 34.7497 42.622 34.8411C43.3282 34.9893 44.0621 35.0085 44.7807 35.0486C46.9341 35.1685 49.1081 35.1173 51.2648 35.1053C49.8987 36.6184 48.4684 38.347 47.1274 39.9005L38.1196 50.3051L34.6782 54.2503C33.7427 55.3143 32.8079 56.4136 31.786 57.3915C32.2651 56.2773 32.6068 55.057 33.0283 53.9162C33.9315 51.4716 37.0866 43.7031 36.788 41.3115C36.7472 40.9846 36.6335 40.6432 36.3536 40.4444C36.0912 40.258 35.7164 40.2399 35.4043 40.2412C34.2905 40.2458 33.1192 40.4745 32.0128 40.6157C29.5224 40.9138 27.0395 41.2721 24.5664 41.6904C24.8762 40.1964 26.2317 37.9718 26.962 36.5497C29.7363 31.1479 32.9844 26.0042 36.1254 20.8137C37.0442 19.2954 38.054 17.7406 38.9006 16.1899Z" fill="white"/>
</svg>
