<svg width="122" height="18" viewBox="0 0 122 18" fill="none" xmlns="http://www.w3.org/2000/svg">
<path d="M26.0575 14.2638C25.2385 14.1065 21.7629 14.1687 20.6781 14.1693L8.59241 14.1794C7.82856 14.1768 4.79761 14.3162 4.38548 13.9514C3.96867 12.9132 6.2297 11.3596 7.1292 11.1845C10.2938 10.5683 13.7444 10.5762 16.9781 10.4503C23.8861 10.1914 30.797 10.021 37.7091 9.93926C42.5006 9.91393 47.322 9.98384 52.1122 9.9062C56.1895 9.84017 60.181 8.79821 64.2044 8.20822C64.9397 8.10033 68.949 7.48492 69.278 7.16319C69.1557 7.01644 69.122 6.99595 68.8679 6.98778C67.173 6.93335 65.4352 6.97802 63.7423 6.94153C59.3854 6.84718 55.0292 6.72399 50.674 6.57188C42.6315 6.21032 34.5533 5.25401 26.5192 4.66147C20.7348 4.23493 14.9319 3.95013 9.14191 3.61838C6.75425 3.48235 8.97247 1.46897 9.83989 0.908257C10.764 0.304368 11.8424 -0.011381 12.9416 0.000313469C14.6469 0.00840285 16.4244 0.22752 18.1383 0.302786C32.8167 0.947738 47.3166 3.13644 62.0249 3.28108C68.4265 3.53405 74.8385 3.81867 81.2451 3.79669C82.7801 3.79142 84.4902 3.73031 86 3.79695C92.829 4.09864 99.397 2.28943 106.126 1.65169C106.18 1.64659 106.291 1.73118 106.33 1.7601C106.404 2.04868 106.389 2.18752 106.209 2.48067C105.136 4.22578 103.345 4.86009 101.528 5.33086C99.5565 5.82976 97.5578 6.21058 95.5418 6.47129C92.7865 6.8449 88.5967 7.00026 86.0381 7.37994C84.2995 7.63801 71.4678 9.53303 70.8546 10.1233L70.8992 10.2521C71.7098 10.4 73.451 10.2598 74.3514 10.2922C79.9364 10.4929 85.4782 11.2203 91.0686 11.3243C100.573 11.4223 110.125 11.0843 119.611 10.4851C120.161 10.4504 121.626 10.2472 121.996 10.6681C122.029 11.1088 121.849 11.4209 121.558 11.754C119.386 14.2406 114.745 14.0303 111.663 14.3043C109.964 14.4552 107.779 14.4005 106.021 14.4989L80.7364 15.8975C79.1988 15.9675 77.6538 16.0951 76.1166 16.1493L51.7974 16.8033C48.1424 16.8466 44.4877 16.9135 40.8336 17.004C35.8702 17.1538 2.24414 19.0312 0.0279692 17.21C-0.233029 16.307 1.39881 15.1399 2.16986 15.0258C4.42725 14.6919 6.92534 14.8867 9.22382 14.858C12.3498 14.7895 15.4748 14.6854 18.5984 14.5456C19.4869 14.5128 20.4395 14.5441 21.3003 14.5056C22.0287 14.1993 25.5209 14.7222 26.0575 14.2638Z" fill="#00AA95"/>
</svg>
