<svg width="131" height="24" viewBox="0 0 131 24" fill="none" xmlns="http://www.w3.org/2000/svg">
<path d="M125.097 0.107458C126 0.0418752 131.332 -0.481121 130.167 1.56535C129.671 2.4379 128.824 3.05525 127.841 3.25986C127.45 3.34191 125.315 3.39028 124.775 3.42395C122.717 3.56511 120.664 3.75427 118.615 3.99126C110.651 4.93244 102.68 5.67697 94.7248 6.71279C91.3032 7.15827 87.8973 7.71429 84.4748 8.17392C81.1933 8.61034 77.9164 9.08227 74.645 9.58963C73.1173 9.81987 70.7177 10.1015 69.3257 10.5009C71.662 10.5989 74.536 10.4843 76.8809 10.439C80.8309 10.3495 84.7819 10.3137 88.7326 10.3315C94.8959 10.311 101.059 10.3746 107.221 10.5223C111.592 10.629 115.939 10.9005 120.317 10.7746C120.8 10.7607 123.112 10.7173 123.348 10.9173C124.204 11.6406 122.786 13.6315 121.791 13.6692C119.05 14.0862 116.415 14.0612 113.699 14.1405C108.492 14.2857 103.287 14.4932 98.0853 14.7631C96.0151 14.8559 94.019 14.9372 91.9535 15.1265C90.4411 15.2651 89.0915 15.2465 87.5948 15.6233C88.5402 15.7999 89.7538 15.8779 90.7343 15.9683C92.8239 16.1416 94.9125 16.3327 96.9993 16.5416C103.822 17.3176 110.629 18.2366 117.414 19.2981C119.964 19.6764 122.52 19.97 125.069 20.3454C126.665 20.5718 126.5 21.6025 125.57 22.5478C124.392 23.7441 123.859 23.3708 122.543 23.2143C110.743 21.8099 98.9798 19.5853 87.1277 18.6444C81.9916 18.2597 76.8411 18.1056 71.6914 18.1824C69.4304 18.2096 67.298 18.8739 65.4566 18.9361C64.4602 18.4716 65.9245 16.5047 66.7662 16.2139C68.5775 15.5881 70.5059 15.3942 72.3892 15.0404C74.6106 14.6229 76.8341 14.2707 79.0596 13.885C80.3359 13.671 81.4263 13.7087 82.7044 13.325C79.8915 13.0696 76.5826 13.3679 73.7204 13.3705C64.6481 13.3789 55.6941 13.7151 46.655 14.4702C46.0894 14.5148 45.489 14.5777 44.9232 14.6492C39.4029 15.3468 33.8646 16.0694 28.3999 17.1257C27.8849 17.2252 25.724 17.7002 25.3303 17.6076L25.2226 17.3845C25.1936 14.8228 28.5276 14.1865 30.5057 13.7928C36.0764 12.684 41.7766 12.198 47.3982 11.3136C55.2372 10.0802 62.9479 8.41414 70.7861 7.18491C76.8339 6.27656 83.0661 5.67615 89.0906 4.62396C87.2156 4.17441 81.6758 4.6949 79.5573 4.7541C72.1744 4.96029 64.7582 5.77355 57.4126 6.40264C46.9944 7.2948 36.7792 8.54503 26.5705 10.8826C23.1804 11.6589 19.7766 12.5193 16.374 13.2586C13.0246 13.9864 9.63577 14.6018 6.293 15.3827C5.30094 15.6097 4.31545 15.8643 3.33763 16.1462C2.76996 16.315 0.692221 17.0268 0.250765 17.047C0.0608627 16.9121 0.0295421 16.8092 0.00391957 16.5716C-0.0276969 16.2785 0.136777 15.9688 0.323535 15.7554C1.86161 13.9981 11.3441 12.0134 14.164 11.3365C22.5683 9.31907 30.9193 7.05189 39.4641 5.6804C43.8659 4.97379 48.3515 4.35006 52.7864 3.88294C55.6334 3.58305 58.4894 3.38039 61.3398 3.11611C67.8085 2.51644 74.2524 1.91953 80.7449 1.614C84.5821 1.42928 88.4218 1.28739 92.2624 1.18813C95.9698 1.1158 99.6744 1.14725 103.386 0.996658C106.807 0.857816 110.23 0.695943 113.649 0.549701L125.097 0.107458Z" fill="#00AA95"/>
</svg>
