<?xml version="1.0" encoding="UTF-8"?>
<svg id="_圖層_1" data-name="圖層 1" xmlns="http://www.w3.org/2000/svg" viewBox="0 0 500 500">
  <defs>
    <style>
      .cls-1 {
        fill: red;
      }

      .cls-1, .cls-2 {
        stroke-width: 0px;
      }

      .cls-2 {
        fill: #14007d;
      }
    </style>
  </defs>
  <path class="cls-2" d="M170.01,323.04h-44.24l-2-23.92h-47.63l-11.36,23.92H16.14l82.52-146.09h48.13l23.22,146.09ZM120.88,268.12l-4.49-53.22h-.4l-25.12,53.22h30Z"/>
  <path class="cls-2" d="M468.77,206.07c-6.18,0-11.86,1.72-17.04,5.17-5.18,3.45-11.17,10.25-18,20.38l-.44-.43,5.07-22.53h-41.08l-4.13,19.41c7.41,10.9,11.74,24.06,11.74,38.24,0,23.68-12.09,44.54-30.43,56.74h42.44l9.06-42.8c2.88-13.29,6.94-22.96,12.18-29.01,5.25-6.03,12.07-9.05,20.48-9.05,2.66,0,5.68.39,9.06,1.19l16.17-33.86c-5.39-2.3-10.43-3.45-15.1-3.45"/>
  <path class="cls-2" d="M268.64,266.31c0-30.02,19.42-55.48,46.37-64.56l13.92-24.8h-48.92l-51.73,104.04h-.4l-13.05-104.04h-44.85l28.1,146.09h48.83l23.41-41.7c-1.1-4.85-1.69-9.87-1.69-15.04"/>
  <path class="cls-1" d="M388.41,288.26c-7.91,12.23-21.76,20.94-38.13,22.35-20.82,1.8-39.65-8.72-48.21-25.1-1-1.66-1.8-3.42-2.15-5.42-.1-.5-.18-1.01-.22-1.52,0-.02,0-.05,0-.08,0-.06-.02-.11-.02-.16-.7-8.21,5.37-15.44,13.59-16.15,5.53-.47,10.6,2.13,13.55,6.4.12.18.23.37.35.55.08.12.16.23.24.35,0,0,0-.01,0-.02,6.58,9.6,18.01,15.49,30.45,14.42,18.38-1.58,31.99-17.77,30.4-36.15-.21-2.62-.76-5.14-1.54-7.53-.02-.05-.04-.09-.05-.14-.11-.37-.24-.71-.36-1.06-.17-.45-.33-.9-.52-1.34-.02-.04-.03-.08-.05-.11-.56-1.34-1.19-2.64-1.92-3.88-.99-1.66-2.12-3.22-3.36-4.67h.02c-11.57-13.7-29.39-21.75-48.61-20.09-31.46,2.72-54.76,30.43-52.05,61.89,2.71,31.35,30.24,54.6,61.57,52.07,21.74-1.92,39.51-16,47.32-35.02-.09.14-.18.28-.27.41M294.13,263.83c-.05.08-.1.13-.14.2l-.04.03c-.01-.58,0-1.15.04-1.72-.05-17.58,13.61-33.31,32.73-36.48.88-.14,1.76-.26,2.63-.35.86-.06,1.71-.11,2.57-.12,8.44-.07,15.67,2.92,20.9,7.97,3.12,2.69,5.36,6.46,6.1,10.87,1.66,9.9-4.36,17.4-14.12,19.04-3.65.62-9.4-.99-12.8-3.81-.29-.22-.87-.7-.87-.7-.55-.58-1.12-1.09-1.71-1.59-4.64-5.19-11.74-7.95-19.11-6.73-7.68,1.28-13.67,6.59-16.2,13.39"/>
</svg>