<svg width="177" height="21" viewBox="0 0 177 21" fill="none" xmlns="http://www.w3.org/2000/svg">
    <g clip-path="url(#clip0_170_1770)">
        <path
            d="M0.478516 0.682617H8.50464C11.8533 0.682617 14.5109 3.09762 14.5109 6.19512C14.5109 8.03262 13.7668 9.18762 12.3317 10.2376V10.2901C14.4046 11.7601 15.2551 13.1251 15.2551 15.1726C15.2551 17.9026 13.0758 20.3701 9.24879 20.3701H0.478516V0.682617ZM7.65419 8.50512C8.77041 8.50512 9.56771 7.77012 9.56771 6.66762C9.56771 5.67012 8.77041 4.88262 7.65419 4.88262H5.31545V8.50512H7.65419ZM8.29203 16.0651C9.40825 16.0651 10.1524 15.3826 10.1524 14.3326C10.1524 13.3876 9.40825 12.6001 8.29203 12.6001H5.31545V16.0651H8.29203Z"
            fill="#3D11D7" />
        <path
            d="M17.6475 0.682617H22.8033L30.5637 12.3376V0.682617H35.4006V20.3701H30.2979L22.5376 8.61012V20.3176H17.6475V0.682617Z"
            fill="#3D11D7" />
        <path
            d="M38.5889 0.682617H51.7709V4.93512H43.479V8.50512H51.133V12.7051H43.479V16.2226H52.1429V20.3701H38.5889V0.682617Z"
            fill="#3D11D7" />
        <path
            d="M60.2228 10.1326L53.7913 0.682617H59.4787L63.2526 6.56262L66.8138 0.682617H72.4481L66.1228 10.5001L72.8201 20.3701H67.239L63.1463 14.1751L59.2129 20.3701H53.6318L60.2228 10.1326Z"
            fill="#3D11D7" />
        <path d="M78.4541 4.93512H73.9893V0.682617H87.8622V4.93512H83.3442V20.3701H78.401V4.93512H78.4541Z"
            fill="#3D11D7" />
        <path
            d="M90.1479 0.682617H94.719L99.8218 11.2876L104.924 0.682617H109.389V20.3701H104.552V11.6026L100.141 21.0001H99.3434L94.9848 11.4976V20.3176H90.0947V0.682617H90.1479Z"
            fill="#9CA3AF" />
        <path
            d="M112.525 0.682617H125.707V4.93512H117.415V8.50512H125.07V12.7051H117.415V16.2226H126.079V20.3701H112.525V0.682617Z"
            fill="#9CA3AF" />
        <path
            d="M128.472 0.682617H135.435C141.335 0.682617 145.853 4.93512 145.853 10.5001C145.853 15.7501 141.813 20.3701 135.435 20.3701H128.472V0.682617ZM135.328 15.9601C138.464 15.9601 140.856 13.8076 140.856 10.5001C140.856 7.45512 138.783 5.04012 135.328 5.04012H133.362V15.9601H135.328Z"
            fill="#9CA3AF" />
        <path d="M149.147 0.682617H154.038V20.3701H149.147V0.682617Z" fill="#9CA3AF" />
        <path
            d="M165.891 0H166.742L176.522 20.3175H171.26L170.25 18.27H162.383L161.426 20.3175H156.164L165.891 0ZM168.602 14.8575L166.316 9.87H166.263L163.924 14.8575H168.602Z"
            fill="#9CA3AF" />
    </g>
    <defs>
        <clipPath id="clip0_170_1770">
            <rect width="177" height="21" fill="white" />
        </clipPath>
    </defs>
</svg>
