<svg width="230" height="45" xmlns="http://www.w3.org/2000/svg" xmlns:xlink="http://www.w3.org/1999/xlink" viewBox="0 0 434.61 85.04">
  <defs>
    <linearGradient id="新增漸層色票_1" x1="21.34" x2="43.06" y1="21.34" y2="43.06" gradientUnits="userSpaceOnUse">
      <stop offset="0" stop-color="#e73e0c"/>
      <stop offset=".2" stop-color="#e95504"/>
      <stop offset=".52" stop-color="#f08600"/>
      <stop offset="1" stop-color="#ffe600"/>
    </linearGradient>
    <linearGradient xlink:href="#新增漸層色票_1" id="新增漸層色票_1-2" x1="-3047.58" x2="-3025.86" y1="4306.93" y2="4328.65" gradientTransform="rotate(-90 -3634.74 650.86)"/>
    <linearGradient id="新增漸層色票_2" x1="63.94" x2="42.52" y1="21.1" y2="42.52" gradientUnits="userSpaceOnUse">
      <stop offset="0" stop-color="#003383"/>
      <stop offset=".2" stop-color="#003787"/>
      <stop offset=".52" stop-color="#005ba9"/>
      <stop offset="1" stop-color="#009fe8"/>
    </linearGradient>
    <style>
      .cls-1{fill:#002f7c}
    </style>
  </defs>
  <g id="圖層_2" data-name="圖層 2">
    <g id="圖層_1-2" data-name="圖層 1">
      <path d="M127.15 68a6.89 6.89 0 0 1 3 .8h.06v-.06l1-1.81h-.06a8.09 8.09 0 0 0-3.94-1.14c-5.13 0-8.31 3.5-8.32 7.49 0 4.3 3.21 7.63 8.27 7.64a8.57 8.57 0 0 0 3.89-1l-.87-1.92h-.06a6.2 6.2 0 0 1-2.89.72 5.06 5.06 0 0 1-5.16-5.4c.01-3.32 2.13-5.32 5.08-5.32ZM138.05 66H133v14.66h4.8c5.16 0 8.26-2.92 8.26-7.73C146 69.4 144 66 138.05 66Zm-.31 12.55H136V68.11h2c3 0 4.73 1.82 4.74 4.8.06 4.02-1.74 5.66-5 5.67ZM160.63 72.72a3.7 3.7 0 0 0 2.73-3.54c0-2-1.77-3.15-4.23-3.15h-5.3v14.63h4.87c3.43 0 5.56-1.81 5.57-4.35a3.77 3.77 0 0 0-3.64-3.59Zm-3.76-4.78h1.45c1.25 0 2.14.53 2.15 1.77a2.49 2.49 0 0 1-2.75 2.36h-.85Zm1.43 10.8h-1.43V74h1.41c1.58 0 2.79.71 2.79 2.36s-1.17 2.38-2.77 2.38ZM148 66.02h3.05v14.63H148zM212.01 66.02h3.05v14.64h-3.05zM216.33 68.09h4.47v12.57h3.05V68.09h3.36l1.2-2.07h-12.08v2.07zM180.24 68a6.85 6.85 0 0 1 3 .8h.06v-.06l.94-1.81h-.05a8.13 8.13 0 0 0-3.95-1.14c-5.13 0-8.31 3.5-8.31 7.49 0 4.3 3.21 7.63 8.27 7.64a8.5 8.5 0 0 0 3.88-1l-.81-1.92h-.06a6.16 6.16 0 0 1-2.88.72 5 5 0 0 1-5.16-5.4c0-3.32 2.12-5.32 5.07-5.32ZM193.6 66h-2.52l-6 14.64h2.67l1.49-4h5.05l1.34 4h3.41Zm-3.5 8.77c.66-1.83 1.32-3.54 1.9-5.68.66 2.14 1.25 3.85 1.85 5.68ZM204.91 66h-4.62v14.66h3.05v-5.47h1.26c3.51 0 5.65-2.43 5.66-4.92-.01-2.85-2.06-4.27-5.35-4.27Zm-.35 7.17-.87.06h-.35v-5.12h1.24c1.7 0 2.62.81 2.63 2.27a2.65 2.65 0 0 1-2.65 2.82ZM234.58 66h-2.51l-5.95 14.64h2.66l1.5-4h5l1.35 4h3.41Zm-3.49 8.77c.66-1.83 1.32-3.54 1.9-5.68.65 2.14 1.26 3.85 1.85 5.68ZM244.12 78.58V66.03h-3.05v14.63h8.81v-2.08h-5.76zM309.09 74.58c0 2.34-.88 4.16-3 4.16s-3.09-1.5-3.09-4.33V66h-3.1v9a6 6 0 0 0 1.54 4.47A6.26 6.26 0 0 0 306 80.9c3.47 0 5.86-2.1 5.86-5.8V66h-2.73ZM266.88 78.37a4.9 4.9 0 0 1-2 .33c-2.47 0-4.89-2-4.89-5.41a5 5 0 0 1 5.19-5.29 7.16 7.16 0 0 1 3.1.76h.07l1-1.84a8.2 8.2 0 0 0-4.19-1.13c-5.15 0-8.32 3.49-8.33 7.48 0 4.31 3.21 7.65 8.25 7.65a15.59 15.59 0 0 0 4.82-.92v-6.1h-3.06ZM279.56 74.11a4.61 4.61 0 0 0 2.44-4.23c0-2.51-1.91-3.85-4.7-3.86h-5.11v14.64h3.06v-5.8h1.64l2.82 5.8h3.52Zm-3.21-1.33h-1.12V68.1h1.45a2 2 0 0 1 2.26 2.13 2.46 2.46 0 0 1-2.59 2.55ZM319 66h-4.62v14.66h3.05v-5.47h1.26c3.51 0 5.65-2.43 5.66-4.91-.01-2.86-2.06-4.28-5.35-4.28Zm-.35 7.17-.87.06h-.35v-5.12h1.24c1.7 0 2.62.81 2.63 2.27a2.65 2.65 0 0 1-2.65 2.82ZM290.58 65.77a7.21 7.21 0 0 0-7.29 7.36c0 4.36 2.8 7.77 7.29 7.77s7.29-3.41 7.31-7.77a7.24 7.24 0 0 0-7.31-7.36Zm0 12.94c-3 0-4.05-2.81-4.05-5.58s1.2-5.15 4.05-5.15 4.06 2.5 4.07 5.15-1.07 5.57-4.07 5.58ZM0 42.52 42.52 0H0v42.52zM42.52 85.04 0 42.52v42.52h42.52zM42.52 85.04l42.52-42.52v42.52H42.52z" class="cls-1"/>
      <path fill="#44af35" d="M85.04 42.52 42.52 0h42.52v42.52z"/>
      <path fill="url(#新增漸層色票_1)" d="M42.52 0 0 42.52h42.52V0z"/>
      <path fill="url(#新增漸層色票_1-2)" d="m0 42.52 42.52 42.52V42.52H0z"/>
      <path fill="#fff" d="M85.04 42.52 42.52 85.04V42.52h42.52z"/>
      <path fill="url(#新增漸層色票_2)" d="M85.04 42.52 42.52 0v42.52h42.52z"/>
      <path d="M159.4 11.36h-16.76V4.67h-5v6.68h-18.71V36.3a2.93 2.93 0 0 0 2.92 2.93h15.77v11.71h5V39.23h19.42v-25a2.92 2.92 0 0 0-2.66-2.9m-21.76 24.15h-13.93V15.12h13.93Zm19.53 0h-14.51V15.12h14.51ZM184 13.15h4.7v-2.37h12.11v2.37h4.71v-2.37h10.35V7.05h-10.31V4.67h-4.71v2.38h-12.11V4.67H184v2.38h-10.3v3.74H184Zm13.19 26v-3.7h18.21v-3.63h-18.17V27H204l-.64 3.21h4.76l.65-3.21h9v-3.66h-9.08v-3.21H204v3.21h-6.79v-4.85h18.89v-3.7h-41.83v3.7h18.1v4.85h-6.79v-3.21h-4.66v3.21h-9.08V27h9.08l.58 3.21h4.66l-.58-3.21h6.79v4.84h-18.21v3.64h18.21v3.7h-20.68v3.66h20.68v7.94h4.86v-7.97h20.68v-3.65ZM263.71 35.29h-7v-4.38h4.69v-3.25h-24.1v3.25h4.7v4.38h-7v3.25h6.88c0 3.1-1.8 5.1-4.64 6.66v3.6c6.18-1.8 8.63-6.15 9.05-10.26h6.09v10.78h4.31V38.54h7Zm-11.29 0h-6.07v-4.38h6.07Zm15.67-29.2h-16.63v19h15v19.78c-.05 1-.18 1.25-1.25 1.39a33.91 33.91 0 0 1-5-.1h-.31l.86 4h.18c2.36.09 5.37.49 7.61-.46 1.85-.79 2.31-2.71 2.29-4.56V8.76a2.67 2.67 0 0 0-2.67-2.67m-1.67 15.24h-10.71V17h10.63Zm0-7.45h-10.7V9.72h10.62Zm-19.62-7.79h-16.23A2.67 2.67 0 0 0 228 8.76v41.49h4.34V25.13h14.56Zm-4.34 15.24h-10.21V17h10.21Zm0-7.44h-10.21V9.72h10.21ZM318.7 17.58a44.2 44.2 0 0 0 5.76-4.08l-3-2.71a43.59 43.59 0 0 1-5.94 4.63 27.84 27.84 0 0 1-2.77-2.42 55.32 55.32 0 0 0 6.41-4.76l-3-2.65a44.29 44.29 0 0 1-5.85 4.7 25 25 0 0 1-2.65-4.19h-4.41a27.57 27.57 0 0 0 11.54 13.39h-10.08v5.17c0 2.27-.8 3.6-3.14 4.09V32c2.69 0 7.21-2.56 7.21-7.28v-2.07H313v4c-.08 3.7.85 4.78 4.27 4.85h4.59v-3.2h-4.13c-.66-.06-.6.08-.67-1.38v-6.09a50.7 50.7 0 0 0 8.52 3.49v-3.61a50.81 50.81 0 0 1-6.92-3.13M321 35.82a2.51 2.51 0 0 0-2.34-2.82h-17.09v3.54h14.34a17.63 17.63 0 0 1-4.4 5.22 17.71 17.71 0 0 1-3.93-3.88h-4.89a18.58 18.58 0 0 0 5.52 6.29 22.57 22.57 0 0 1-8.38 2.83v3.22a31.1 31.1 0 0 0 11.72-3.89c3.34 1.93 8.05 3.07 12.19 3.89V46.7a32.78 32.78 0 0 1-8.8-2.93 22.25 22.25 0 0 0 6.09-8m-24.24.36h-8.94s.73-4.16.76-4.16h10.84v-8.2a2.67 2.67 0 0 0-2.67-2.66h-7c7.55-3.62 10.8-8.74 12.22-12.11a2.32 2.32 0 0 0-.72-2.17 2.58 2.58 0 0 0-1.65-.74h-15.05v3.58h12.32a14.68 14.68 0 0 1-4.13 5.33 38.77 38.77 0 0 0-5.06-3.87l-.15-.09-2.8 2.26.26.19a28.76 28.76 0 0 1 4.58 3.81 36 36 0 0 1-9 3.41v3.58a48.84 48.84 0 0 0 5.13-1.43v1.5h9.69v4.46h-10.79s-1.24 8-1.86 10.82a.18.18 0 0 0 .12.17h12.2c-.41 5.47-.86 5.92-1.45 6.11a1.21 1.21 0 0 1-.79.18c-.3 0-7.36-.32-7.36-.32l.43 3.56c2.64.14 5.29.35 7.93.27 1.08 0 2.44-.09 3.13-1a11.07 11.07 0 0 0 1.57-4 35 35 0 0 0 .91-5.74 2.67 2.67 0 0 0-2.67-2.65M374 43.49a.5.5 0 0 0 .57-.57V22.45c0-.31-.19-.49-.57-.52h-32.79a.5.5 0 0 0-.53.52v20.47c0 .38.17.57.53.57H348a97 97 0 0 1-11.64 2.67v4a64.16 64.16 0 0 0 13.81-3.58v-3.09h14.69V47c4.5.92 8.71 1.92 13.48 3.31V46.2c-3.45-1-7.53-1.88-11.88-2.71Zm-29.13-17.82c0-.12 0-.18.14-.18h25.16a.16.16 0 0 1 .18.18v2.42h-25.48Zm0 5.78h25.49V34h-25.49Zm.14 8.48a.16.16 0 0 1-.14-.23v-2.37h25.48v2.37a.21.21 0 0 1-.18.23Zm28.63-24.6c2.13-2.14 4.65-5.1 4.95-5.53.79-1.12.39-2.65-1.78-2.65h-20.18a6 6 0 0 1 .53-.76l-3.42-2.08a23 23 0 0 1-7.33 7.44l2.9 2.84a31.46 31.46 0 0 0 4.57-3.89h4.89a12.91 12.91 0 0 1-10.18 6.72v4c6.3-1.15 10.63-3.11 13-6.86 3.69 4.77 9.39 7 16.75 7.84v-4.05q-10.69-1.16-14.63-7.65h9.1c-.66.65-1.42 1.37-2.27 2.18Zm4.7 7.09c.05 0-.06 0 0 0m-33.76-8.49a28.46 28.46 0 0 1-8.22 4.83v3.91A33.49 33.49 0 0 0 347.14 17Zm1.83-6.78h-10.05v3.55h10.05ZM434.61 12.26H415V4.68h-5v7.58h-19.72v4.24h17.14a44.43 44.43 0 0 1-17.14 17.18v4.7s12.65-5.59 19.66-17.45v15.38h-11.18v4.19h11.17v9.71h5V40.5h11.18v-4.19H415V20.93c7 11.86 19.66 17.45 19.66 17.45v-4.7a44.5 44.5 0 0 1-17.19-17.18h17.14Z" class="cls-1"/>
    </g>
  </g>
</svg>
