<svg width="134" height="24" viewBox="0 0 134 24" fill="none" xmlns="http://www.w3.org/2000/svg">
<path d="M24.1709 0V4.20037H4.38123V19.6017H19.9678V17.1515H8.32166C7.36194 17.1515 6.72447 15.6324 6.65092 14.7958C6.52832 13.4044 6.46703 9.45959 6.69995 8.18023C6.79102 7.68143 7.7052 6.47558 8.14653 6.47558H24.1709V10.6759H10.861V12.9512H22.5072C23.0781 12.9512 23.903 13.8122 24.0518 14.3828C24.332 15.4539 24.3198 20.7271 24.1552 21.9487C24.0028 23.0723 23.3093 23.7619 22.1657 23.8109C15.7559 23.3313 8.48978 24.4164 2.18335 23.8109C0.78406 23.6761 0.288442 22.962 0.171105 21.6214C-0.375301 15.4311 0.600173 8.455 0.171105 2.18069C0.0327518 1.43863 0.957438 0 1.66672 0H24.1709Z" fill="#FEFEFE"/>
<path d="M37.831 1.2251L37.6558 2.97525H45.3616V1.2251H47.9885V2.977L52.1916 2.80024V5.25046L47.9885 5.07544V12.0761L52.5419 11.901V14.3513L47.6382 14.178C48.9815 15.6464 51.295 16.511 53.2424 16.8032L52.1899 19.4285C52.1093 19.502 50.5839 18.8754 50.323 18.7582C49.3878 18.3381 48.5804 17.7186 47.64 17.3283V18.9034L42.7346 18.7267V20.4786H51.3177V22.9288H31.8783V20.4786H40.1094V18.7267L35.3809 18.9034V17.3283C34.0009 18.1439 32.6208 19.1134 31.0096 19.4232L29.9536 16.98C31.8503 16.469 34.113 15.7444 35.3826 14.1797L30.479 14.353V11.9028C31.7907 11.9641 33.2933 12.2406 34.6033 12.0866C34.859 12.0568 35.0534 12.0656 35.2075 11.8153V5.33796C34.0096 4.66065 32.3739 5.52348 31.0044 5.25046V2.80024L35.2075 2.97525L35.0324 1.2251H37.8345H37.831ZM45.3616 5.07544H37.6558V6.12553H45.3616V5.07544ZM45.3616 8.0507H37.6558V9.1008H45.3616V8.0507ZM45.3616 11.026H37.6558V12.0761H45.3616V11.026ZM36.4299 16.6265H40.1077V14.8763H42.7346V16.6265H46.5875C46.6978 16.2134 46.4806 16.3307 46.3633 16.2257C45.999 15.9019 45.5665 15.6166 45.2039 15.2946C44.598 14.7591 44.7871 14.2708 43.7083 14.164C42.19 14.0152 40.3809 14.2638 38.8292 14.2113L36.4299 16.6265Z" fill="#FEFEFE"/>
<path d="M79.3366 2.1001V4.90035L67.715 4.74983C67.4663 4.83384 66.5854 7.57809 66.3525 8.11363C66.0985 8.69993 65.5048 9.45075 65.328 9.89179C65.2404 10.1123 65.363 10.2156 65.5854 10.1526L77.5853 9.97755V23.2787H74.7832V21.8786H64.8008V23.1037H61.9987V14.9655C61.9987 14.9357 62.3735 14.6592 62.0863 14.528C61.4103 15.2053 60.8621 15.9718 60.1634 16.6316C59.9637 16.8207 58.6748 17.9968 58.5714 18.0195C58.1651 18.1105 57.2982 15.7723 56.7466 15.4888C60.5049 12.9546 63.4908 9.17598 64.6239 4.72708L57.7939 4.90035V2.1001H79.3349H79.3366ZM74.7832 12.601H64.8008V19.4266H74.7832V12.601Z" fill="#FEFEFE"/>
<path d="M87.7428 23.4522L87.9162 18.0285L85.8147 23.1022L83.7446 20.9162C86.2858 17.2146 86.0126 12.5242 85.9898 8.22584L85.5765 8.3571L83.89 6.12915C86.1562 5.03706 88.2542 3.2939 89.7043 1.26372L92.3785 1.23047C94.1018 2.61834 95.7866 4.13398 97.8986 4.90405L96.6692 7.35076L94.657 6.1274L94.5712 7.17575H88.4416L88.3558 6.47744C87.8479 6.89572 87.2525 7.25275 86.7376 7.65004C86.5905 7.7638 86.4206 7.64479 86.5169 8.05083H96.4994V15.7515C96.3085 15.818 96.1158 15.5765 96.0615 15.5765H88.3558L88.0931 16.6266H96.6745V23.1022H94.2227V22.4021H90.4574L90.1947 23.4522H87.7428ZM93.347 5.25058L91.333 3.32891L89.6693 5.25058H93.347ZM93.8724 9.976H88.6185V11.0261H93.8724V9.976ZM93.8724 12.7762H88.4434V13.6513H93.8724V12.7762ZM94.2227 18.5518H90.3698V20.4769H94.2227V18.5518Z" fill="#FEFEFE"/>
<path d="M129.248 1.5752V7.2632C129.523 7.7795 131.175 7.54148 131.175 7.08819V4.37544L133.606 5.53755C133.508 6.52114 133.497 8.71233 132.763 9.37564C131.907 10.1492 127.341 10.2577 126.91 9.23563C126.354 7.91426 126.749 5.63731 126.62 4.19868H123.905L123.671 4.4892C123.807 7.40496 122.613 9.66441 120.315 11.3743H130.035C130.191 11.3743 130.261 11.0453 130.741 11.3603C131.023 11.5458 131.924 12.6904 131.849 12.9932C131.786 13.2487 130.622 15.0146 130.369 15.3839C129.625 16.469 128.718 17.4754 127.849 18.4624C127.849 18.557 129.229 19.3393 129.476 19.4583C130.856 20.1181 132.376 20.3719 133.797 20.9127L132.143 23.4101C129.835 22.6908 127.585 21.7667 125.625 20.3281C123.509 21.6792 121.203 22.9061 118.737 23.3769L117.338 21.0019C119.515 20.5749 121.671 19.7786 123.467 18.4572C122.856 17.5559 122.152 16.7315 121.574 15.804C120.996 14.8764 120.774 13.0667 119.439 13.8245V11.1993L120.14 11.1118C119.739 10.55 119.023 10.1457 118.576 9.69942C118.431 9.5559 118.326 9.54365 118.39 9.27588C119.194 9.12537 120.003 8.20303 120.392 7.51172C120.669 7.01993 121.191 5.48679 121.191 4.9845V1.5752H129.247H129.248ZM128.373 13.6513H123.294C123.776 14.8956 124.695 15.9282 125.683 16.7893C126.091 16.8611 128.613 13.856 128.373 13.6513Z" fill="#FEFEFE"/>
<path d="M116.99 1.05029C117.078 1.1133 116.815 1.27606 116.815 1.31282V5.42568H119.442V7.8759H116.815V11.5512L118.917 10.8512V13.3014L116.84 14.1135C116.516 15.8969 117.395 21.5901 116.3 22.803C115.843 23.3088 113.046 23.5783 112.355 23.4488C111.482 23.2843 111.724 21.5831 111.388 20.8306C111.561 20.6678 114.19 21.4379 114.19 20.5663V14.8783L111.39 15.7534L111.139 13.1089L114.19 12.4281V7.87765H111.213V5.42743H114.19V1.66285C114.19 1.57534 113.913 1.29531 114.015 1.05029H116.992H116.99Z" fill="#FEFEFE"/>
<path d="M105.957 1.2251L105.766 21.4236C105.409 23.9474 101.612 22.8798 99.8271 23.1038L99.3018 20.5661C100.214 20.4453 103.034 21.4079 103.288 20.1793L103.156 1.2251H105.958H105.957Z" fill="#FEFEFE"/>
<path d="M100.877 2.80029H98.2505V17.8516H100.877V2.80029Z" fill="#FEFEFE"/>
</svg>
